<svg width="16" height="16" viewBox="0 0 16 16" fill="none" xmlns="http://www.w3.org/2000/svg">
<path d="M4 2V3.2C3.44772 3.2 3 3.64772 3 4.2V5.84308C3 6.46139 2.78323 7.06013 2.38739 7.53513L2 8C2.64614 8.77537 3 9.75274 3 10.762V11.8C3 12.3523 3.44772 12.8 4 12.8V14H3.2C2.53726 14 2 13.4627 2 12.8V10.3662C2 9.64269 1.6204 8.97224 1 8.6V7.4C1.6204 7.02776 2 6.35731 2 5.63381V3C2 2.44771 2.44772 2 3 2H4Z" fill="#FF3232"/>
<path d="M12 2V3.2C12.5523 3.2 13 3.64772 13 4.2V5.84308C13 6.46139 13.2168 7.06013 13.6126 7.53513L14 8C13.3539 8.77537 13 9.75274 13 10.762V11.8C13 12.3523 12.5523 12.8 12 12.8V14H12.8C13.4627 14 14 13.4627 14 12.8V10.3662C14 9.64269 14.3796 8.97224 15 8.6V7.4C14.3796 7.02776 14 6.35731 14 5.63381V3C14 2.44771 13.5523 2 13 2H12Z" fill="#FF3232"/>
<path d="M9.01129 11.4627C9.16178 11.4876 9.31527 11.5 9.47178 11.5C9.61625 11.5 9.76373 11.4876 9.91422 11.4627C10.0647 11.4441 10.2092 11.4037 10.3476 11.3415C10.4861 11.2794 10.6185 11.2017 10.7449 11.1085C10.8713 11.0091 10.9797 10.8941 11.07 10.7636C11.1663 10.6332 11.2445 10.4964 11.3047 10.3535C11.3649 10.2106 11.4071 10.0646 11.4312 9.91545C11.4552 9.7601 11.4612 9.60786 11.4492 9.45872C11.4372 9.30337 11.4101 9.15735 11.3679 9.02064C11.3258 8.87772 11.2716 8.74412 11.2054 8.61984C11.1392 8.49556 11.064 8.3775 10.9797 8.26565C10.8954 8.14758 10.8021 8.03884 10.6998 7.93941C10.6035 7.83999 10.5011 7.74678 10.3928 7.65979C10.2904 7.56658 10.1851 7.47337 10.0767 7.38016C9.97442 7.28695 9.88111 7.18442 9.79684 7.07257C9.71257 6.96072 9.65237 6.83333 9.61625 6.69041C9.58014 6.54128 9.57412 6.39214 9.59819 6.24301C9.61023 6.14359 9.63431 6.04727 9.67043 5.95406C9.71257 5.86085 9.76674 5.77696 9.83296 5.7024C9.90519 5.62783 9.98646 5.5719 10.0767 5.53462C10.1731 5.49734 10.2664 5.4787 10.3567 5.4787C10.4409 5.4787 10.5222 5.49423 10.6005 5.5253C10.6787 5.55637 10.7389 5.60608 10.781 5.67443C10.8232 5.73657 10.8503 5.81114 10.8623 5.89814C10.8743 5.97892 10.8713 6.0628 10.8533 6.1498V6.18708H11.9639C11.9699 6.17466 11.9729 6.16223 11.9729 6.1498C11.9789 6.13737 11.9819 6.12494 11.9819 6.11252C12.006 5.95095 12.006 5.79561 11.9819 5.64647C11.9639 5.49112 11.9217 5.3482 11.8555 5.21771C11.7893 5.08722 11.702 4.97537 11.5937 4.88216C11.4913 4.78273 11.374 4.70506 11.2415 4.64913C11.1091 4.59321 10.9676 4.55593 10.8172 4.53728C10.6667 4.51243 10.5162 4.5 10.3657 4.5C10.2212 4.5 10.0767 4.51243 9.93228 4.53728C9.78781 4.56214 9.64635 4.60564 9.5079 4.66778C9.37547 4.72992 9.24906 4.8107 9.12867 4.91012C9.0143 5.00954 8.91196 5.1245 8.82167 5.25499C8.73138 5.37927 8.65613 5.51287 8.59594 5.65579C8.54176 5.79871 8.50564 5.94163 8.48758 6.08455C8.45749 6.2399 8.44846 6.39214 8.4605 6.54128C8.47254 6.69041 8.49962 6.83644 8.54176 6.97936C8.5839 7.11607 8.63807 7.24967 8.70429 7.38016C8.7705 7.50444 8.84575 7.6225 8.93002 7.73435C9.0143 7.8462 9.10459 7.95495 9.2009 8.06059C9.29722 8.16001 9.39654 8.25632 9.49887 8.34953C9.60722 8.43653 9.71257 8.52663 9.8149 8.61984C9.92325 8.71305 10.0196 8.81558 10.1038 8.92743C10.1881 9.03928 10.2483 9.16667 10.2844 9.30959C10.3266 9.45251 10.3356 9.60164 10.3115 9.75699C10.2995 9.85641 10.2694 9.95584 10.2212 10.0553C10.1731 10.1547 10.1099 10.2417 10.0316 10.3162C9.95937 10.3846 9.87208 10.4374 9.76975 10.4747C9.67344 10.5058 9.57713 10.5213 9.48081 10.5213C9.39052 10.5213 9.30324 10.5089 9.21896 10.484C9.13469 10.453 9.06546 10.4032 9.01129 10.3349C8.96313 10.2665 8.93002 10.1889 8.91196 10.1019C8.89992 10.0087 8.89992 9.91545 8.91196 9.82224L8.92099 9.79427H7.83532L7.68397 4.57457H6.38375L4 11.4254H5.14673L5.59819 9.98069H6.73589V11.4254H7.88262L7.86011 10.6492C7.87736 10.6949 7.8969 10.7393 7.91874 10.7823C7.99097 10.9128 8.08427 11.0277 8.19865 11.1272C8.31302 11.2204 8.43943 11.2949 8.57788 11.3509C8.71633 11.4068 8.8608 11.4441 9.01129 11.4627ZM6.76298 6.85819L6.74492 9.002H5.91422L6.58239 6.85819C6.61249 6.76498 6.64259 6.67488 6.67269 6.58788L6.76298 6.30826C6.75696 6.40146 6.75395 6.49467 6.75395 6.58788C6.75395 6.67488 6.75696 6.76498 6.76298 6.85819Z" fill="#FF3232"/>
</svg>
