<svg width="16" height="16" viewBox="0 0 16 16" fill="none" xmlns="http://www.w3.org/2000/svg">
<path d="M12.367 3.58571C11.2511 1.98929 9.04077 1.51786 7.45279 2.53571L4.65236 4.31429C3.89056 4.79643 3.36481 5.57857 3.20386 6.45714C3.07511 7.19643 3.1824 7.95714 3.53648 8.62143C3.30043 8.98571 3.12876 9.39286 3.05365 9.82143C2.8927 10.7321 3.1073 11.6643 3.63305 12.4143C4.74893 14.0107 6.9485 14.4821 8.54721 13.4643L11.3476 11.6857C12.1094 11.2036 12.6352 10.4214 12.7961 9.54286C12.9249 8.80357 12.8176 8.04286 12.4635 7.37857C12.6996 7.01429 12.8712 6.60714 12.9464 6.17857C13.1073 5.26786 12.8927 4.33571 12.367 3.58571ZM11.5622 5.87857C11.5408 5.96429 11.5193 6.05 11.4979 6.13571L11.4442 6.29643L11.3047 6.18929C10.9721 5.94286 10.6073 5.76071 10.2103 5.64286L10.103 5.61071L10.1137 5.50357C10.1245 5.35357 10.0815 5.21429 9.99571 5.08571C9.83476 4.85 9.54507 4.75357 9.27682 4.81786C9.21245 4.83929 9.1588 4.86071 9.10515 4.89286L6.30472 6.68214C6.16524 6.76786 6.06867 6.90714 6.04721 7.06786C6.01502 7.22857 6.05794 7.4 6.15451 7.53929C6.31545 7.775 6.60515 7.87143 6.87339 7.80714C6.93777 7.78571 6.99142 7.76429 7.04506 7.73214L8.11803 7.05714C8.2897 6.95 8.48283 6.86429 8.6867 6.81071C9.58798 6.575 10.5429 6.92857 11.0687 7.68929C11.3906 8.13929 11.5193 8.69643 11.4227 9.24286C11.3262 9.77857 11.015 10.25 10.5536 10.5393L7.74249 12.3179C7.57082 12.425 7.37768 12.5107 7.17382 12.5643C6.27253 12.8 5.3176 12.4464 4.79185 11.6857C4.46996 11.2357 4.3412 10.6786 4.43777 10.1321C4.45923 10.0464 4.48069 9.96071 4.50215 9.875L4.55579 9.71429L4.69528 9.82143C5.0279 10.0679 5.3927 10.25 5.7897 10.3679L5.897 10.4L5.88627 10.5071C5.87554 10.6571 5.91846 10.8071 6.00429 10.925C6.16524 11.1607 6.45494 11.2571 6.72318 11.1929C6.78755 11.1714 6.8412 11.15 6.89485 11.1179L9.69528 9.33929C9.83476 9.25357 9.93133 9.11429 9.96352 8.95357C9.99571 8.79286 9.95279 8.62143 9.85622 8.48214C9.69528 8.24643 9.40558 8.15 9.13734 8.21429C9.07296 8.23571 9.01931 8.25714 8.96567 8.28929L7.8927 8.96429C7.72103 9.07143 7.5279 9.15714 7.32403 9.21071C6.42275 9.43571 5.46781 9.08214 4.93133 8.31071C4.60944 7.86071 4.48069 7.30357 4.57725 6.75714C4.67382 6.22143 4.98498 5.75 5.44635 5.46071L8.25751 3.68214C8.42919 3.575 8.62232 3.48929 8.82618 3.43571C9.72747 3.2 10.6824 3.55357 11.2082 4.31429C11.53 4.775 11.6588 5.33214 11.5622 5.87857Z" fill="#FF3E00"/>
</svg>
