<!-- This icon is in the public domain. Anyone is free to copy, modify, publish, use, sell, or distribute this content in any way, for any purpose, commercial or non-commercial, and by any means. -->
<svg width="16" height="16" viewBox="0 0 16 16" fill="none" xmlns="http://www.w3.org/2000/svg">
<path fill-rule="evenodd" clip-rule="evenodd" d="M5 1C2.79086 1 1 2.79086 1 5L1 11C1 13.2091 2.79086 15 5 15H11C13.2091 15 15 13.2091 15 11L15 5C15 2.79086 13.2091 1 11 1L5 1ZM12 6.09091C12.1387 6.20691 12.2164 6.36849 12.233 6.57564H13.8861C13.884 6.15927 13.7804 5.79572 13.5753 5.485C13.3723 5.1722 13.0833 4.92983 12.7084 4.7579C12.3335 4.58597 11.8891 4.5 11.3754 4.5C10.872 4.5 10.4256 4.58493 10.0362 4.75479C9.64881 4.92466 9.34534 5.16184 9.12576 5.46635C8.90825 5.76879 8.80053 6.12198 8.8026 6.52592C8.80053 7.02308 8.96107 7.41563 9.28423 7.70357C9.60945 7.98943 10.0538 8.19348 10.6172 8.31569L11.2511 8.45241C11.4873 8.5042 11.6747 8.56013 11.8135 8.6202C11.9523 8.67821 12.0517 8.74449 12.1118 8.81907C12.174 8.89157 12.2061 8.9765 12.2081 9.07386C12.2061 9.17744 12.1729 9.26962 12.1087 9.35041C12.0445 9.43119 11.9502 9.49438 11.826 9.53995C11.7017 9.58552 11.5473 9.60831 11.363 9.60831C11.1434 9.60831 10.9539 9.57413 10.7943 9.50577C10.6369 9.43741 10.5147 9.33694 10.4277 9.20437C10.3407 9.07179 10.292 8.90814 10.2817 8.71342H8.64103C8.6431 9.2458 8.75703 9.68288 8.98282 10.0247C9.21069 10.3644 9.5297 10.6161 9.93985 10.7797C10.3521 10.9434 10.8347 11.0252 11.3878 11.0252C11.9264 11.0252 12.3873 10.9496 12.7706 10.7984C13.1559 10.6472 13.4521 10.4265 13.6592 10.1365C13.8664 9.84653 13.971 9.4923 13.9731 9.07386C13.971 8.8315 13.9316 8.60778 13.855 8.4027C13.7804 8.19762 13.6634 8.01326 13.5039 7.84961C13.3444 7.68389 13.1393 7.53992 12.8886 7.4177C12.638 7.29548 12.3366 7.19709 11.9844 7.12251L11.4624 7.01065C11.3112 6.97958 11.1807 6.94436 11.0709 6.90501C10.9611 6.86565 10.871 6.82215 10.8006 6.7745C10.7301 6.72479 10.6783 6.66989 10.6452 6.60982C10.6141 6.54767 10.6007 6.47828 10.6048 6.40163C10.6069 6.30841 10.6348 6.22556 10.6887 6.15305C10.7426 6.08055 10.8254 6.02358 10.9373 5.98215C11.0512 5.93865 11.1973 5.9169 11.3754 5.9169C11.6551 5.9169 11.8632 5.9749 12 6.09091ZM1.87501 10.9506H3.73935L4.10706 9.7326H6.20545L6.57316 10.9506H8.4375L6.33701 4.587H3.9755L1.87501 10.9506ZM5.81522 8.43998L5.18111 6.33949H5.1314L4.49729 8.43998H5.81522Z" fill="#ac2222"/>
</svg>
